#!OML:ASF C:\ViconDB\ViconDB\414\Spring2016\041811\Spring2016.ASF
:FULLY-SPECIFIED
:DEGREES
212
root 9.74195 17.7906 -9.27681 -179.134 -4.35451 -179.122
lowerback -1.01967 2.00658 -4.82149
upperback 0.0484295 2.70124 -0.983137
thorax 0.444932 1.32287 1.7217
lowerneck -11.0671 -1.99998 -11.0162
upperneck 24.744 -7.36255 18.201
head 10.7957 -3.30748 7.55668
rclavicle -1.7257e-014 0
rhumerus -86.9402 33.9148 -120.378
rradius 83.2827
rwrist 29.4905
rhand -49.6923 -3.456
rfingers 7.12502
rthumb -22.2937 -32.19
lclavicle -1.7257e-014 0
lhumerus -86.193 -44.5624 119.562
lradius 79.2227
lwrist -26.3559
lhand -40.4 -3.81314
lfingers 7.12502
lthumb -13.3534 25.739
rfemur 233.695 204.986 -177.165
rtibia -54.9923
rfoot -227.316 -95.7959
rtoes -17.9913
lfemur -26.6408 -12.5854 -18.5342
ltibia 39.9599
lfoot -13.8418 -11.216
ltoes -8.11892
213
root 9.67091 17.8249 -9.4315 -179.267 -4.11714 -179.795
lowerback -0.880694 1.90504 -4.92584
upperback 0.199203 2.56517 -0.908364
thorax 0.522964 1.25111 1.85366
lowerneck -11.4485 -1.83752 -11.2526
upperneck 24.9575 -6.86343 17.7541
head 10.8486 -3.0947 7.50564
rclavicle 4.68386e-015 2.62396e-014
rhumerus -86.8472 34.3762 -120.348
rradius 83.3745
rwrist 29.3816
rhand -49.5857 -3.71916
rfingers 7.12502
rthumb -22.1914 -32.4654
lclavicle 4.68386e-015 2.62396e-014
lhumerus -86.3254 -44.6697 119.956
lradius 79.0462
lwrist -26.4551
lhand -40.5495 -3.29341
lfingers 7.12502
lthumb -13.4974 26.2492
rfemur 233.944 204.833 -177.735
rtibia -57.2508
rfoot -229.564 -96.9508
rtoes -16.9918
lfemur -25.2566 -12.073 -19.6903
ltibia 39.0284
lfoot -13.9253 -11.5397
ltoes -8.00539
214
root 9.60046 17.8591 -9.58912 -179.329 -3.85699 -180.375
lowerback -0.763488 1.84343 -4.91056
upperback 0.205447 2.47544 -0.917682
thorax 0.470806 1.20725 1.83097
lowerneck -11.5596 -1.62723 -11.1635
upperneck 25.1698 -6.41147 17.2374
head 10.8436 -2.90814 7.35575
rclavicle -2.59041e-014 5.04913e-014
rhumerus -86.791 34.4862 -120.453
rradius 83.3476
rwrist 29.6075
rhand -49.4041 -3.67714
rfingers 7.12502
rthumb -22.0171 -32.4439
lclavicle -2.59041e-014 5.04913e-014
lhumerus -86.7458 -44.8052 120.47
lradius 78.8477
lwrist -26.0892
lhand -40.6547 -3.34755
lfingers 7.12502
lthumb -13.5988 26.1883
rfemur 233.729 204.772 -178.099
rtibia -59.1369
rfoot -230.766 -97.774
rtoes -16.2812
lfemur -23.9502 -11.8134 -20.6983
ltibia 38.1198
lfoot -14.1026 -11.606
ltoes -7.94646
215
root 9.53791 17.8878 -9.74659 -179.458 -3.80647 -180.624
lowerback -0.552902 1.74156 -4.60933
upperback 0.195616 2.32827 -0.850367
thorax 0.361798 1.13908 1.7242
lowerneck -11.7009 -1.44345 -10.9944
upperneck 25.472 -6.01902 16.6457
head 10.8884 -2.75269 7.15865
rclavicle 8.06942e-015 1.27222e-014
rhumerus -86.6161 34.3854 -120.478
rradius 83.2713
rwrist 29.7401
rhand -49.5153 -3.54686
rfingers 7.12502
rthumb -22.1238 -32.3011
lclavicle 8.06942e-015 1.27222e-014
lhumerus -87.3824 -45.0512 121.107
lradius 78.6812
lwrist -26.0253
lhand -41.0488 -2.9775
lfingers 7.12502
lthumb -13.9786 26.5325
rfemur 233.249 204.852 -178.012
rtibia -60.6309
rfoot -233.868 -98.4163
rtoes -14.8703
lfemur -22.6859 -11.6037 -21.3183
ltibia 37.2951
lfoot -14.2501 -11.8595
ltoes -7.76391
216
root 9.47112 17.9077 -9.90305 -179.678 -3.63199 -181.244
lowerback -0.285479 1.60235 -4.76722
upperback 0.279686 2.13063 -0.790391
thorax 0.302839 1.03991 1.86642
lowerneck -11.9475 -1.23101 -10.7925
upperneck 25.7677 -5.48473 15.8224
head 10.9255 -2.53963 6.88454
rclavicle -2.01456e-014 4.45278e-014
rhumerus -86.6161 34.6718 -120.618
rradius 83.2631
rwrist 29.7793
rhand -49.5374 -3.80585
rfingers 7.12502
rthumb -22.145 -32.5575
lclavicle -2.01456e-014 4.45278e-014
lhumerus -87.4897 -44.9724 121.354
lradius 78.3991
lwrist -25.9004
lhand -41.1773 -3.05245
lfingers 7.12502
lthumb -14.1025 26.449
rfemur 232.541 204.865 -178.341
rtibia -61.8115
rfoot -235.622 -98.727
rtoes -14.3272
lfemur -21.2842 -11.6552 -22.3763
ltibia 36.5178
lfoot -14.5525 -11.7266
ltoes -7.64195
217
root 9.40637 17.931 -10.0672 -179.76 -3.53509 -181.55
lowerback -0.285807 1.51857 -4.48933
upperback 0.342767 2.02414 -0.693565
thorax 0.381152 0.986878 1.81193
lowerneck -12.0744 -1.09891 -10.7244
upperneck 25.932 -5.06919 15.1408
head 10.9229 -2.38773 6.6695
rclavicle 6.73694e-015 -1.63003e-014
rhumerus -86.4741 34.6241 -120.458
rradius 83.3821
rwrist 29.8124
rhand -49.3941 -4.10068
rfingers 7.12502
rthumb -22.0074 -32.8686
lclavicle 6.73694e-015 -1.63003e-014
lhumerus -87.7317 -45.1601 121.927
lradius 78.0182
lwrist -25.9564
lhand -41.4827 -2.55545
lfingers 7.12502
lthumb -14.3968 26.9253
rfemur 231.334 204.92 -178.18
rtibia -62.6073
rfoot -237.971 -98.5708
rtoes -14.654
lfemur -20.0534 -11.446 -23.0641
ltibia 35.7375
lfoot -14.786 -11.9022
ltoes -7.53923
218
root 9.34956 17.9464 -10.2302 -179.861 -3.44266 -181.802
lowerback -0.226915 1.38819 -4.32397
upperback 0.376962 1.85097 -0.583063
thorax 0.396009 0.901721 1.83175
lowerneck -12.2082 -0.894245 -10.4649
upperneck 26.1981 -4.62996 14.4431
head 10.9562 -2.22016 6.42099
rclavicle -2.35032e-014 5.36719e-015
rhumerus -86.1198 34.5166 -120.201
rradius 83.2923
rwrist 30.0508
rhand -49.5677 -4.01837
rfingers 7.12502
rthumb -22.1741 -32.7666
lclavicle -2.35032e-014 5.36719e-015
lhumerus -87.9944 -45.239 122.359
lradius 77.6896
lwrist -25.6758
lhand -41.6711 -2.57592
lfingers 7.12502
lthumb -14.5783 26.8918
rfemur 229.854 205.013 -177.856
rtibia -63.1027
rfoot -242.953 -98.3516
rtoes -13.9583
lfemur -18.8517 -11.3567 -23.661
ltibia 35.0045
lfoot -15.0343 -11.9725
ltoes -7.41315
219
root 9.28943 17.9762 -10.3972 -179.88 -3.42852 -182.196
lowerback -0.215397 1.28028 -4.28572
upperback 0.355203 1.7085 -0.479251
thorax 0.374284 0.832661 1.91612
lowerneck -12.2949 -0.736218 -10.4048
upperneck 26.4547 -4.25679 13.8773
head 10.998 -2.09524 6.25185
rclavicle 1.02296e-014 1.18277e-014
rhumerus -86.0205 34.3294 -119.927
rradius 83.6106
rwrist 29.5874
rhand -49.2631 -3.85069
rfingers 7.12502
rthumb -21.8817 -32.6334
lclavicle 1.02296e-014 1.18277e-014
lhumerus -88.3242 -45.3589 123.117
lradius 77.2084
lwrist -25.5398
lhand -41.902 -2.2671
lfingers 7.12502
lthumb -14.8007 27.1844
rfemur 227.951 205.127 -177.647
rtibia -63.2291
rfoot -247.821 -97.6348
rtoes -15.2378
lfemur -17.6976 -11.1424 -24.411
ltibia 34.2511
lfoot -15.2666 -12.2218
ltoes -7.31805
220
root 9.23116 17.9862 -10.5609 -179.914 -3.33193 -182.55
lowerback -0.163087 1.17582 -4.15752
upperback 0.315424 1.56684 -0.431547
thorax 0.315368 0.764865 1.89151
lowerneck -12.2528 -0.5256 -10.1572
upperneck 26.5888 -3.81491 13.2105
head 10.9564 -1.93438 6.01122
rclavicle -4.6297e-015 9.6659e-015
rhumerus -85.827 34.1189 -119.584
rradius 83.8047
rwrist 29.7028
rhand -49.2525 -3.40806
rfingers 7.12502
rthumb -21.8715 -32.1919
lclavicle -4.6297e-015 9.6659e-015
lhumerus -88.901 -45.467 123.77
lradius 76.9568
lwrist -25.1204
lhand -42.1329 -2.42574
lfingers 7.12502
lthumb -15.0232 27.0092
rfemur 225.852 205.153 -177.332
rtibia -63.1053
rfoot -257.87 -97.2721
rtoes -15.1015
lfemur -16.6194 -10.7454 -25.1024
ltibia 33.5624
lfoot -15.4846 -12.5572
ltoes -7.34523
221
root 9.17804 17.9946 -10.7291 -179.979 -3.21562 -182.907
lowerback -0.175202 1.0728 -4.12041
upperback 0.333353 1.43186 -0.370236
thorax 0.348498 0.697233 1.93407
lowerneck -12.4149 -0.382363 -9.94621
upperneck 26.8915 -3.50195 12.6142
head 11.0452 -1.83106 5.79841
rclavicle 1.63427e-014 -1.38155e-014
rhumerus -85.3544 33.8388 -118.998
rradius 83.9754
rwrist 29.9173
rhand -49.2524 -2.39549
rfingers 7.12502
rthumb -21.8714 -31.1794
lclavicle 1.63427e-014 -1.38155e-014
lhumerus -89.227 -45.3504 124.276
lradius 76.6069
lwrist -25.1125
lhand -42.233 -2.08152
lfingers 7.12502
lthumb -15.1197 27.3462
rfemur 223.549 205.179 -176.982
rtibia -62.6966
rfoot -270.832 -96.9455
rtoes -15.3347
lfemur -15.4316 -10.5774 -25.7925
ltibia 32.8056
lfoot -15.773 -12.6602
ltoes -7.24746
222
root 9.1223 18.0049 -10.896 -180.104 -3.19978 -183.049
lowerback -0.0393015 0.942343 -3.9011
upperback 0.295183 1.25426 -0.187136
thorax 0.245108 0.613556 1.99608
lowerneck -12.3521 -0.200616 -9.74012
upperneck 27.059 -3.0967 11.9094
head 11.0269 -1.70293 5.54874
rclavicle 2.02551e-014 -7.7526e-015
rhumerus -85.1234 33.5026 -118.346
rradius 84.2677
rwrist 30.4311
rhand -48.9931 -2.16674
rfingers 7.12502
rthumb -21.6224 -30.9795
lclavicle 2.02551e-014 -7.7526e-015
lhumerus -89.6762 -45.1871 125.04
lradius 76.3444
lwrist -24.3833
lhand -42.5392 -2.08353
lfingers 7.12502
lthumb -15.4145 27.3218
rfemur 221.081 205.221 -176.399
rtibia -61.9862
rfoot -286.194 -96.7417
rtoes -16.6204
lfemur -14.2529 -10.0461 -26.2282
ltibia 32.115
lfoot -16.0121 -13.207
ltoes -7.66788
223
root 9.06683 18.0164 -11.0669 -180.194 -3.09237 -183.335
lowerback -0.0144595 0.852202 -3.76446
upperback 0.276373 1.13401 -0.118541
thorax 0.220761 0.555219 1.9894
lowerneck -12.3007 -0.0272206 -9.50972
upperneck 27.2065 -2.75746 11.3499
head 11.018 -1.59004 5.34165
rclavicle -1.14212e-014 7.95139e-015
rhumerus -84.9327 33.236 -117.885
rradius 84.5732
rwrist 31.0204
rhand -48.9294 -1.92141
rfingers 7.12502
rthumb -21.5612 -30.7412
lclavicle -1.14212e-014 7.95139e-015
lhumerus -90.4582 -45.3285 125.924
lradius 76.303
lwrist -23.4542
lhand -42.841 -1.9737
lfingers 7.12502
lthumb -15.7052 27.409
rfemur 218.373 205.227 -175.954
rtibia -61.0234
rfoot -303.203 -96.8159
rtoes -18.8552
lfemur -13.0206 -10.0263 -26.8568
ltibia 31.369
lfoot -16.4725 -13.0961
ltoes -7.57763
224
root 9.01721 18.0217 -11.2402 -180.212 -3.02965 -183.613
lowerback -0.0322793 0.732603 -3.67803
upperback 0.18211 0.974573 -0.0702914
thorax 0.144591 0.478967 1.99002
lowerneck -12.1558 0.194039 -9.22888
upperneck 27.3734 -2.40323 10.8421
head 10.9985 -1.46952 5.14624
rclavicle -1.1726e-014 2.38542e-015
rhumerus -84.849 32.8575 -117.522
rradius 85.0531
rwrist 31.0552
rhand -48.3794 -0.947776
rfingers 7.12502
rthumb -21.0329 -29.8272
lclavicle -1.1726e-014 2.38542e-015
lhumerus -91.1236 -45.2754 126.548
lradius 76.2428
lwrist -23.0219
lhand -42.8603 -1.4339
lfingers 7.12502
lthumb -15.7238 27.9473
rfemur 324.563 154.74 -355.433
rtibia 59.7602
rfoot -318.135 -82.1445
rtoes -20.3856
lfemur -11.9172 -9.48939 -27.395
ltibia 30.6563
lfoot -16.7311 -13.5494
ltoes -8.3087
225
root 8.95939 18.0223 -11.413 -180.302 -2.84076 -183.928
lowerback -0.0340332 0.64683 -3.47843
upperback 0.1837 0.861457 -0.0178452
thorax 0.156308 0.423091 1.93208
lowerneck -12.2177 0.351167 -9.25969
upperneck 27.5735 -2.06935 10.4551
head 11.0426 -1.36723 5.05489
rclavicle -7.06773e-015 6.36111e-015
rhumerus -84.578 32.6117 -117.057
rradius 85.3656
rwrist 31.235
rhand -48.076 -0.441275
rfingers 7.12502
rthumb -20.7414 -29.3528
lclavicle -7.06773e-015 6.36111e-015
lhumerus -91.4522 -45.1249 126.949
lradius 76.1268
lwrist -22.8373
lhand -42.9993 -1.15139
lfingers 7.12502
lthumb -15.8577 28.2192
rfemur 327.627 154.691 -354.933
rtibia 58.2444
rfoot -329.819 -80.5608
rtoes -20.9257
lfemur -10.7337 -9.05508 -28.0275
ltibia 29.9512
lfoot -17.0857 -13.7607
ltoes -7.27702
